<svg xmlns="http://www.w3.org/2000/svg" width="289" height="13" viewBox="0 0 289 13" fill="none">
  <path d="M1 8.48149C1.967 8.37405 2.62619 7.14223 3.28524 6.55981C5.02778 5.0199 7.28136 3.7577 9.51772 3.08001C12.8829 2.06026 15.6404 2.64105 18.9443 3.80714C22.1076 4.92356 24.9827 6.72806 28.3969 7.05322C32.4326 7.43756 35.4711 5.76371 39.2259 4.84588C41.0261 4.40584 42.7994 3.79361 44.6273 3.44357C48.7974 2.64505 51.7791 4.54963 55.3005 6.37803C63.148 10.4527 73.2797 12.0438 80.9575 7.05322C83.6427 5.30785 85.6998 4.90243 88.7741 4.50829C93.4376 3.9104 95.2175 6.35216 99.2654 7.54662C103.375 8.75925 107.973 8.48149 112.198 8.48149C114.979 8.48149 118.169 8.88778 120.845 7.93615C122.461 7.36157 123.867 6.24069 125.364 5.41719C127.284 4.36136 127.792 3.80714 130.012 3.80714C133.511 3.80714 136.966 5.29845 139.984 6.97531C142.547 8.39881 145.635 8.94893 148.528 8.94893C153.616 8.94893 156.843 7.55384 161.486 5.67688C167.074 3.41808 169.538 8.13699 174.159 10.1175C180.614 12.884 190.266 11.8636 195.817 7.54662C200.253 4.09614 203.902 6.31911 208.49 8.19584C213.183 10.116 216.883 10.3512 222.045 10.3512C226.222 10.3512 230.01 10.5519 233.783 8.45553C236.334 7.03835 238.657 5.69689 240.509 3.41761C241.663 1.99758 246.044 2.87457 247.391 3.08001C253.207 3.96733 258.892 8.77652 265.101 6.76756C270.028 5.17376 271.603 0.881166 276.943 1.00252C279.003 1.04933 280.923 3.04949 282.422 4.2486C283.861 5.39945 285.849 5.58111 287.538 6.14431" stroke="#DCDCDC" stroke-linecap="round"/>
</svg>